#!OML:ASF X:\für Bonn\!DataBase\2005_08_10_Bjorn_Final\c3d\bjorn.ASF
:FULLY-SPECIFIED
:DEGREES
49
root 0.626817 15.754 2.87538 -173.782 0.0396795 -180.413
lowerback 8.8724 0.912272 3.7669
upperback 6.20415 2.1341 -0.0549879
thorax 1.59454 1.46389 -2.31509
lowerneck -14.5985 -2.94374 -1.77746
upperneck 9.66484 -3.49846 -0.992101
head 5.30393 -1.85571 -0.330613
rclavicle 4.77083e-015 -2.78299e-015
rhumerus 78.8608 3.79554 -75.064
rradius 9.68029
rwrist 49.6802
rhand -15.419 8.89652
rfingers 7.12502
rthumb 10.7606 -20.8079
lclavicle 4.77083e-015 -2.78299e-015
lhumerus 78.9627 -13.9576 79.3949
lradius 8.88433
lwrist -52.2441
lhand -25.694 -8.18011
lfingers 7.12502
lthumb 0.841278 21.798
rfemur -50.5108 -11.8542 15.6799
rtibia 88.7849
rfoot -32.1981 15.4638
rtoes -27.0376
lfemur -49.5223 1.31402 -16.0757
ltibia 89.9966
lfoot -27.5148 -4.3074
ltoes -35.5217
50
root 0.621443 15.5311 2.90737 -173.811 0.0395624 -180.394
lowerback 9.2329 0.870271 3.81459
upperback 6.31236 2.12544 -0.0614688
thorax 1.51122 1.47394 -2.35752
lowerneck -14.4965 -2.95709 -1.77103
upperneck 9.2219 -3.52465 -0.977821
head 5.14841 -1.86489 -0.323019
rclavicle 3.18055e-014 9.14409e-015
rhumerus 78.8891 3.70246 -74.988
rradius 9.71269
rwrist 49.3196
rhand -15.0231 9.09257
rfingers 7.12502
rthumb 11.1424 -20.5916
lclavicle 3.18055e-014 9.14409e-015
lhumerus 78.9742 -14.0053 79.328
lradius 8.88669
lwrist -52.0101
lhand -25.8487 -8.27993
lfingers 7.12502
lthumb 0.691865 21.6987
rfemur -52.2082 -12.0898 15.5491
rtibia 91.3632
rfoot -32.1712 15.9958
rtoes -27.4447
lfemur -51.2118 1.55293 -15.9281
ltibia 92.6208
lfoot -27.6057 -4.96556
ltoes -35.5297
51
root 0.617402 15.306 2.9389 -173.862 0.0270374 -180.376
lowerback 9.63697 0.810932 3.80873
upperback 6.42415 2.09487 -0.02026
thorax 1.40256 1.47129 -2.32031
lowerneck -14.4497 -2.95387 -1.80246
upperneck 8.80864 -3.51753 -0.999618
head 5.01154 -1.86276 -0.319079
rclavicle -3.57812e-015 1.39149e-014
rhumerus 78.9309 3.68664 -74.8648
rradius 9.69756
rwrist 48.927
rhand -14.6244 9.26913
rfingers 7.12502
rthumb 11.527 -20.3939
lclavicle -3.57812e-015 1.39149e-014
lhumerus 78.9259 -14 79.3225
lradius 8.89089
lwrist -51.7981
lhand -25.9197 -8.28736
lfingers 7.12502
lthumb 0.623326 21.6915
rfemur -53.784 -12.3522 15.4127
rtibia 93.7999
rfoot -32.0569 16.6426
rtoes -27.692
lfemur -52.8647 1.87182 -15.8249
ltibia 95.1986
lfoot -27.7487 -5.50256
ltoes -35.5288
52
root 0.612714 15.0773 2.96982 -173.932 0.0165862 -180.356
lowerback 10.0911 1.70281 4.01291
upperback 6.53692 1.85414 0.0752795
thorax 1.30189 0.743465 -2.33941
lowerneck -14.4327 -2.95641 -1.78539
upperneck 8.42308 -3.52654 -1.03233
head 4.88736 -1.86791 -0.32842
rclavicle 3.99557e-014 -1.47101e-014
rhumerus 78.9413 3.60791 -74.7654
rradius 9.62931
rwrist 48.5373
rhand -14.355 9.42473
rfingers 7.12502
rthumb 11.7868 -20.2236
lclavicle 3.99557e-014 -1.47101e-014
lhumerus 78.8798 -14.0342 79.2862
lradius 8.87485
lwrist -51.5179
lhand -25.942 -8.33804
lfingers 7.12502
lthumb 0.60177 21.6409
rfemur -55.2574 -12.6444 15.2442
rtibia 96.1356
rfoot -31.8271 17.5586
rtoes -27.1929
lfemur -54.4571 2.2357 -15.7609
ltibia 97.7181
lfoot -27.8814 -5.96873
ltoes -35.544
53
root 0.608644 14.8494 2.99949 -174.021 -0.00805157 -180.316
lowerback 10.5827 1.67123 4.05288
upperback 6.64748 1.79713 0.123891
thorax 1.14765 0.697897 -2.3178
lowerneck -14.4829 -2.94124 -1.80491
upperneck 8.05867 -3.50623 -1.04982
head 4.78174 -1.85957 -0.326111
rclavicle -1.41137e-014 -2.54444e-014
rhumerus 78.9583 3.60196 -74.6532
rradius 9.47998
rwrist 48.1124
rhand -14.3371 9.56185
rfingers 7.12502
rthumb 11.804 -20.0855
lclavicle -1.41137e-014 -2.54444e-014
lhumerus 78.8147 -13.9997 79.2678
lradius 8.81102
lwrist -51.38
lhand -25.9415 -8.36339
lfingers 7.12502
lthumb 0.602255 21.6155
rfemur -56.6272 -12.9557 15.0852
rtibia 98.3779
rfoot -31.5541 18.5914
rtoes -26.3867
lfemur -55.9918 2.68176 -15.7134
ltibia 100.18
lfoot -28.0184 -6.46383
ltoes -35.2217
54
root 0.604902 14.6188 3.02974 -174.132 -0.0209061 -180.296
lowerback 11.1356 1.6582 4.10079
upperback 6.7537 1.76686 0.146315
thorax 0.959838 0.664877 -2.33109
lowerneck -14.5379 -2.94489 -1.80985
upperneck 7.69931 -3.51616 -1.05593
head 4.67858 -1.8651 -0.325246
rclavicle 1.82882e-014 -1.98785e-015
rhumerus 78.8887 3.54853 -74.5605
rradius 9.37446
rwrist 47.7327
rhand -14.497 9.62229
rfingers 7.12502
rthumb 11.6498 -20.0338
lclavicle 1.82882e-014 -1.98785e-015
lhumerus 78.7516 -14.0262 79.2387
lradius 8.71944
lwrist -51.3509
lhand -25.9682 -8.39313
lfingers 7.12502
lthumb 0.576418 21.5858
rfemur -57.9423 -13.3166 14.9032
rtibia 100.574
rfoot -31.2264 19.7313
rtoes -25.261
lfemur -57.4728 3.21253 -15.7703
ltibia 102.598
lfoot -28.2315 -6.60134
ltoes -35.3709
